<svg width="563" height="262" xmlns="http://www.w3.org/2000/svg" xmlns:xlink="http://www.w3.org/1999/xlink" overflow="hidden"><defs><clipPath id="clip0"><rect x="506" y="302" width="563" height="262"/></clipPath></defs><g clip-path="url(#clip0)" transform="translate(-506 -302)"><rect x="646" y="416" width="52.0002" height="54" fill="#FFFFFF"/><text font-family="Courier New,Courier New_MSFontService,sans-serif" font-weight="400" font-size="50" transform="matrix(1 0 0 1 656.849 456)">*</text><rect x="580" y="321" width="51.0002" height="52.9999" fill="#FFFFFF"/><text font-family="Courier New,Courier New_MSFontService,sans-serif" font-weight="400" font-size="50" transform="matrix(1 0 0 1 590.39 361)">+</text><path d="M0 0 29.7917 40.1042" stroke="#000000" stroke-width="2.29167" stroke-miterlimit="8" fill="none" fill-rule="evenodd" transform="matrix(-1 0 0 1 579.792 373)"/><path d="M660.792 413.104 631 373" stroke="#000000" stroke-width="2.29167" stroke-miterlimit="8" fill="none" fill-rule="evenodd"/><rect x="513" y="410" width="52.0002" height="52.9999" fill="#FFFFFF"/><text font-family="Courier New,Courier New_MSFontService,sans-serif" font-weight="400" font-size="37" transform="matrix(1 0 0 1 528.229 446)">1</text><path d="M0 0 29.7917 40.1042" stroke="#000000" stroke-width="2.29167" stroke-miterlimit="8" fill="none" fill-rule="evenodd" transform="matrix(-1 0 0 1 645.792 452)"/><path d="M724.792 492.104 695 452" stroke="#000000" stroke-width="2.29167" stroke-miterlimit="8" fill="none" fill-rule="evenodd"/><rect x="580" y="491" width="51.0002" height="53.9999" fill="#FFFFFF"/><text font-family="Courier New,Courier New_MSFontService,sans-serif" font-weight="400" font-size="37" transform="matrix(1 0 0 1 594.687 528)">2</text><rect x="710" y="492" width="52.0002" height="54" fill="#FFFFFF"/><text font-family="Courier New,Courier New_MSFontService,sans-serif" font-weight="400" font-size="37" transform="matrix(1 0 0 1 725.026 529)">3</text><rect x="1013" y="416" width="51.9999" height="54" fill="#FFFFFF"/><text font-family="Courier New,Courier New_MSFontService,sans-serif" font-weight="400" font-size="32" transform="matrix(1 0 0 1 1029.17 451)">3</text><rect x="947" y="326" width="50.9999" height="54" fill="#FFFFFF"/><text font-family="Courier New,Courier New_MSFontService,sans-serif" font-weight="400" font-size="50" transform="matrix(1 0 0 1 957.271 367)">*</text><path d="M0 0 29.7917 40.1042" stroke="#000000" stroke-width="2.29167" stroke-miterlimit="8" fill="none" fill-rule="evenodd" transform="matrix(-1 0 0 1 946.792 373)"/><path d="M1027.79 413.104 998 373" stroke="#000000" stroke-width="2.29167" stroke-miterlimit="8" fill="none" fill-rule="evenodd"/><rect x="880" y="410" width="51.9999" height="52.9999" fill="#FFFFFF"/><text font-family="Courier New,Courier New_MSFontService,sans-serif" font-weight="400" font-size="37" transform="matrix(1 0 0 1 895.11 446)">+</text><path d="M0 0 29.7917 40.1042" stroke="#000000" stroke-width="2.29167" stroke-miterlimit="8" fill="none" fill-rule="evenodd" transform="matrix(-1 0 0 1 882.792 455)"/><path d="M959.792 492.104 930 452" stroke="#000000" stroke-width="2.29167" stroke-miterlimit="8" fill="none" fill-rule="evenodd"/><rect x="826" y="491" width="50.9999" height="53.9999" fill="#FFFFFF"/><text font-family="Courier New,Courier New_MSFontService,sans-serif" font-weight="400" font-size="37" transform="matrix(1 0 0 1 840.468 528)">1</text><rect x="0" y="0" width="63.9999" height="39.9999" fill="#FFFFFF" transform="matrix(-1 0 0 1 998 498)"/><text font-family="Courier New,Courier New_MSFontService,sans-serif" font-weight="400" font-size="37" transform="matrix(1 0 0 1 955.41 528)">2</text></g></svg>