<svg width="3331" height="1074" xmlns="http://www.w3.org/2000/svg" xmlns:xlink="http://www.w3.org/1999/xlink" xml:space="preserve" overflow="hidden"><defs><clipPath id="clip0"><rect x="435" y="472" width="3331" height="1074"/></clipPath></defs><g clip-path="url(#clip0)" transform="translate(-435 -472)"><path d="M1163.5 605.5C1163.5 533.703 1221.7 475.5 1293.5 475.5 1365.3 475.5 1423.5 533.703 1423.5 605.5 1423.5 677.297 1365.3 735.5 1293.5 735.5 1221.7 735.5 1163.5 677.297 1163.5 605.5Z" stroke="#000000" stroke-width="4.58333" stroke-miterlimit="8" fill="#FFFFFF" fill-rule="evenodd"/><text font-family="Calibri,Calibri_MSFontService,sans-serif" font-weight="400" font-size="147" transform="matrix(1 0 0 1 1254.56 654)">d</text><path d="M1555.5 989.5C1555.5 917.703 1613.7 859.5 1685.5 859.5 1757.3 859.5 1815.5 917.703 1815.5 989.5 1815.5 1061.3 1757.3 1119.5 1685.5 1119.5 1613.7 1119.5 1555.5 1061.3 1555.5 989.5Z" stroke="#000000" stroke-width="4.58333" stroke-miterlimit="8" fill="#FFFFFF" fill-rule="evenodd"/><text font-family="Calibri,Calibri_MSFontService,sans-serif" font-weight="400" font-size="147" transform="matrix(1 0 0 1 1648.66 1038)">e</text><path d="M790.5 989.5C790.5 917.703 848.703 859.5 920.5 859.5 992.297 859.5 1050.5 917.703 1050.5 989.5 1050.5 1061.3 992.297 1119.5 920.5 1119.5 848.703 1119.5 790.5 1061.3 790.5 989.5Z" stroke="#000000" stroke-width="4.58333" stroke-miterlimit="8" fill="#FFFFFF" fill-rule="evenodd"/><text font-family="Calibri,Calibri_MSFontService,sans-serif" font-weight="400" font-size="147" transform="matrix(1 0 0 1 881.62 1038)">b</text><path d="M437.5 1369.5C437.5 1297.7 495.479 1239.5 567 1239.5 638.521 1239.5 696.5 1297.7 696.5 1369.5 696.5 1441.3 638.521 1499.5 567 1499.5 495.479 1499.5 437.5 1441.3 437.5 1369.5Z" stroke="#000000" stroke-width="4.58333" stroke-miterlimit="8" fill="#FFFFFF" fill-rule="evenodd"/><text font-family="Calibri,Calibri_MSFontService,sans-serif" font-weight="400" font-size="147" transform="matrix(1 0 0 1 531.189 1418)">a</text><path d="M1107.5 1369.5C1107.5 1297.7 1165.7 1239.5 1237.5 1239.5 1309.3 1239.5 1367.5 1297.7 1367.5 1369.5 1367.5 1441.3 1309.3 1499.5 1237.5 1499.5 1165.7 1499.5 1107.5 1441.3 1107.5 1369.5Z" stroke="#000000" stroke-width="4.58333" stroke-miterlimit="8" fill="#FFFFFF" fill-rule="evenodd"/><text font-family="Calibri,Calibri_MSFontService,sans-serif" font-weight="400" font-size="147" transform="matrix(1 0 0 1 1205.75 1418)">c</text><path d="M2.50013-2.35918 187.035 193.2 182.035 197.919-2.50013 2.35918ZM180.676 163.77 189.216 200.521 153.023 189.865C151.201 189.329 150.16 187.418 150.696 185.597 151.232 183.775 153.143 182.734 154.964 183.27L185.505 192.261 181.186 196.337 173.98 165.327C173.55 163.477 174.701 161.63 176.55 161.2 178.399 160.77 180.247 161.921 180.676 163.77Z" transform="matrix(-1 0 0 1 1201.71 697.5)"/><path d="M2.59555-2.25378 168.265 188.539 163.074 193.047-2.59555 2.25378ZM163.13 158.873 170.143 195.945 134.421 183.802C132.624 183.191 131.662 181.238 132.273 179.441 132.884 177.643 134.837 176.682 136.634 177.293L166.777 187.539 162.293 191.433 156.375 160.151C156.022 158.285 157.248 156.487 159.114 156.134 160.979 155.781 162.778 157.008 163.13 158.873Z" transform="matrix(-1 0 0 1 828.633 1081.5)"/><path d="M1387.89 695.025 1591.05 890.81 1586.28 895.761 1383.11 699.975ZM1583.3 861.717 1593.58 898.02 1556.92 889.095C1555.08 888.646 1553.95 886.786 1554.39 884.942 1554.84 883.097 1556.7 881.966 1558.55 882.415L1589.48 889.946 1585.36 894.222 1576.69 863.589C1576.17 861.762 1577.23 859.862 1579.06 859.345 1580.89 858.828 1582.79 859.89 1583.3 861.717Z"/><path d="M1015.35 1079.57 1144.19 1269.87 1138.49 1273.72 1009.65 1083.43ZM1142.64 1239.8 1145.16 1277.45 1111.15 1261.12C1109.44 1260.3 1108.72 1258.24 1109.54 1256.53 1110.36 1254.82 1112.41 1254.1 1114.13 1254.92L1142.83 1268.7 1137.91 1272.03 1135.78 1240.26C1135.65 1238.37 1137.08 1236.73 1138.98 1236.6 1140.87 1236.47 1142.51 1237.91 1142.64 1239.8Z"/><path d="M3149.5 982.5C3149.5 910.703 3207.7 852.5 3279.5 852.5 3351.3 852.5 3409.5 910.703 3409.5 982.5 3409.5 1054.3 3351.3 1112.5 3279.5 1112.5 3207.7 1112.5 3149.5 1054.3 3149.5 982.5Z" stroke="#000000" stroke-width="4.58333" stroke-miterlimit="8" fill="#FFFFFF" fill-rule="evenodd"/><text font-family="Calibri,Calibri_MSFontService,sans-serif" font-weight="400" font-size="147" transform="matrix(1 0 0 1 3240.52 1031)">d</text><path d="M3504.5 1360.5C3504.5 1288.7 3562.48 1230.5 3634 1230.5 3705.52 1230.5 3763.5 1288.7 3763.5 1360.5 3763.5 1432.3 3705.52 1490.5 3634 1490.5 3562.48 1490.5 3504.5 1432.3 3504.5 1360.5Z" stroke="#000000" stroke-width="4.58333" stroke-miterlimit="8" fill="#FFFFFF" fill-rule="evenodd"/><text font-family="Calibri,Calibri_MSFontService,sans-serif" font-weight="400" font-size="147" transform="matrix(1 0 0 1 3597.11 1409)">e</text><path d="M2795.5 605.5C2795.5 533.703 2853.7 475.5 2925.5 475.5 2997.3 475.5 3055.5 533.703 3055.5 605.5 3055.5 677.297 2997.3 735.5 2925.5 735.5 2853.7 735.5 2795.5 677.297 2795.5 605.5Z" stroke="#000000" stroke-width="4.58333" stroke-miterlimit="8" fill="#FFFFFF" fill-rule="evenodd"/><text font-family="Calibri,Calibri_MSFontService,sans-serif" font-weight="400" font-size="147" transform="matrix(1 0 0 1 2886.62 654)">b</text><path d="M2442.5 985.5C2442.5 913.703 2500.48 855.5 2572 855.5 2643.52 855.5 2701.5 913.703 2701.5 985.5 2701.5 1057.3 2643.52 1115.5 2572 1115.5 2500.48 1115.5 2442.5 1057.3 2442.5 985.5Z" stroke="#000000" stroke-width="4.58333" stroke-miterlimit="8" fill="#FFFFFF" fill-rule="evenodd"/><text font-family="Calibri,Calibri_MSFontService,sans-serif" font-weight="400" font-size="147" transform="matrix(1 0 0 1 2536.19 1034)">a</text><path d="M2840.5 1360.5C2840.5 1288.7 2898.7 1230.5 2970.5 1230.5 3042.3 1230.5 3100.5 1288.7 3100.5 1360.5 3100.5 1432.3 3042.3 1490.5 2970.5 1490.5 2898.7 1490.5 2840.5 1432.3 2840.5 1360.5Z" stroke="#000000" stroke-width="4.58333" stroke-miterlimit="8" fill="#FFFFFF" fill-rule="evenodd"/><text font-family="Calibri,Calibri_MSFontService,sans-serif" font-weight="400" font-size="147" transform="matrix(1 0 0 1 2939.18 1409)">c</text><path d="M3020.08 695.23 3185.74 883.553 3180.58 888.094 3014.92 699.77ZM3180.42 853.919 3187.67 890.946 3151.87 879.032C3150.07 878.432 3149.09 876.486 3149.69 874.685 3150.29 872.884 3152.24 871.909 3154.04 872.509L3184.25 882.562 3179.79 886.484 3173.67 855.24C3173.3 853.377 3174.52 851.571 3176.38 851.206 3178.24 850.841 3180.05 852.056 3180.42 853.919Z"/><path d="M2.59555-2.25378 168.265 188.539 163.074 193.047-2.59555 2.25378ZM163.13 158.873 170.143 195.945 134.421 183.802C132.624 183.191 131.662 181.238 132.273 179.441 132.884 177.643 134.837 176.682 136.634 177.293L166.777 187.539 162.293 191.433 156.375 160.151C156.022 158.285 157.248 156.487 159.114 156.134 160.979 155.781 162.778 157.008 163.13 158.873Z" transform="matrix(-1 0 0 1 2833.63 697.5)"/><path d="M3374.08 1072.23 3540.16 1261.38 3534.99 1265.91 3368.92 1076.77ZM3534.86 1231.74 3542.08 1268.77 3506.29 1256.83C3504.49 1256.22 3503.52 1254.28 3504.12 1252.48 3504.72 1250.68 3506.67 1249.7 3508.47 1250.3L3538.67 1260.38 3534.2 1264.3 3528.11 1233.05C3527.75 1231.19 3528.97 1229.39 3530.83 1229.02 3532.69 1228.66 3534.5 1229.88 3534.86 1231.74Z"/><path d="M2.88845-1.86366 124.537 186.677 118.76 190.404-2.88845 1.86366ZM123.653 156.581 125.347 194.273 91.7039 177.195C90.011 176.336 89.3353 174.267 90.1946 172.574 91.0539 170.881 93.1229 170.206 94.8158 171.065L123.205 185.475 118.215 188.695 116.785 156.89C116.699 154.994 118.168 153.387 120.064 153.302 121.961 153.217 123.567 154.685 123.653 156.581Z" transform="matrix(-1 0 0 1 3187.84 1074.5)"/><path d="M1858.5 735 2367.5 735 2367.5 697.5 2442.5 772.5 2367.5 847.5 2367.5 810 1858.5 810Z" stroke="#000000" stroke-width="6.875" stroke-miterlimit="8" fill="#FFFFFF" fill-rule="evenodd"/><path d="M2442.5 1261.75 1934 1261.75 1934 1299.5 1858.5 1224 1934 1148.5 1934 1186.25 2442.5 1186.25Z" stroke="#000000" stroke-width="6.875" stroke-miterlimit="8" fill="#FFFFFF" fill-rule="evenodd"/><text font-family="Microsoft YaHei,Microsoft YaHei_MSFontService,sans-serif" font-weight="400" font-size="147" transform="translate(1983.03 705)">右旋<tspan font-size="147" x="25.7904" y="718">左旋</tspan></text></g></svg>